<svg width="609" height="402" viewBox="0 0 609 402" fill="none" xmlns="http://www.w3.org/2000/svg">
<path d="M413.834 207.846C413.596 208.238 413.329 208.693 413.102 209.056C412.899 209.403 413.008 209.85 413.347 210.062L418.105 213.022C418.272 213.126 418.473 213.158 418.664 213.111C418.854 213.064 419.018 212.941 419.118 212.77C419.309 212.448 419.554 212.03 419.821 211.583C421.706 208.438 423.601 208.823 427.019 210.473L431.737 212.741C431.915 212.827 432.121 212.836 432.306 212.766C432.492 212.696 432.641 212.554 432.721 212.371L434.986 207.191C435.146 206.822 434.983 206.39 434.62 206.222C433.625 205.749 431.645 204.805 429.863 203.936C423.451 200.788 418.002 200.991 413.834 207.846Z" fill="url(#paint0_linear_141_136)"/>
<path d="M435.166 196.092C435.404 195.7 435.671 195.245 435.898 194.883C436.101 194.536 435.992 194.088 435.653 193.876L430.895 190.917C430.727 190.802 430.519 190.763 430.321 190.81C430.124 190.856 429.954 190.983 429.852 191.161C429.662 191.483 429.417 191.901 429.15 192.348C427.265 195.493 425.369 195.108 421.951 193.458L417.249 191.202C417.07 191.116 416.865 191.106 416.679 191.176C416.494 191.246 416.344 191.388 416.264 191.572L413.999 196.751C413.839 197.121 414.002 197.552 414.365 197.72C415.36 198.194 417.34 199.137 419.122 200.006C425.549 203.151 430.998 202.94 435.166 196.092Z" fill="url(#paint1_linear_141_136)"/>
<g opacity="0.85">
<path d="M113.411 180.576C112.89 182.008 111.263 182.726 109.772 182.184C108.281 181.641 107.497 180.045 108.018 178.613C108.539 177.182 110.165 176.464 111.656 177.006L114.353 177.988L113.411 180.576ZM114.759 181.067C115.28 179.635 116.906 178.917 118.398 179.46C119.889 180.003 120.673 181.598 120.152 183.03L117.796 189.501C117.275 190.933 115.649 191.651 114.158 191.109C112.667 190.566 111.882 188.97 112.403 187.539L114.759 181.067Z" fill="#E01E5A"/>
<path d="M121.237 171.654C119.746 171.112 118.962 169.516 119.483 168.084C120.004 166.653 121.63 165.934 123.121 166.477C124.613 167.02 125.397 168.616 124.876 170.047L123.934 172.636L121.237 171.654ZM120.759 172.968C122.25 173.511 123.034 175.107 122.513 176.538C121.992 177.97 120.366 178.688 118.874 178.145L112.113 175.684C110.622 175.142 109.838 173.546 110.359 172.114C110.88 170.683 112.506 169.964 113.997 170.507L120.759 172.968Z" fill="#36C5F0"/>
<path d="M130.624 179.49C131.145 178.059 132.771 177.34 134.263 177.883C135.754 178.426 136.538 180.022 136.017 181.453C135.496 182.885 133.869 183.603 132.378 183.06L129.682 182.079L130.624 179.49ZM129.276 179C128.755 180.431 127.128 181.149 125.637 180.607C124.146 180.064 123.362 178.468 123.883 177.037L126.245 170.546C126.766 169.114 128.393 168.396 129.884 168.938C131.375 169.481 132.159 171.077 131.638 172.508L129.276 179Z" fill="#2EB67D"/>
<path d="M122.803 188.392C124.295 188.935 125.079 190.531 124.558 191.962C124.037 193.394 122.41 194.112 120.919 193.569C119.428 193.027 118.644 191.431 119.165 189.999L120.107 187.411L122.803 188.392ZM123.274 187.098C121.783 186.555 120.999 184.96 121.52 183.528C122.041 182.096 123.668 181.378 125.159 181.921L131.92 184.382C133.412 184.925 134.196 186.52 133.675 187.952C133.154 189.383 131.527 190.102 130.036 189.559L123.274 187.098Z" fill="#ECB22E"/>
</g>
<ellipse cx="304.5" cy="162.5" rx="304.5" ry="99.5" fill="url(#paint2_radial_141_136)"/>
<g opacity="0.9">
<circle cx="190" cy="215" r="14" fill="#4B4B4B"/>
<path fill-rule="evenodd" clip-rule="evenodd" d="M197.998 215.058C197.998 214.823 197.818 214.688 197.597 214.755L182.401 219.393C182.18 219.461 182 219.706 182 219.94V224.68C182 224.915 182.18 225.05 182.401 224.983L197.597 220.345C197.818 220.278 197.998 220.032 197.998 219.798V215.058V215.058Z" fill="url(#paint3_linear_141_136)"/>
<path fill-rule="evenodd" clip-rule="evenodd" d="M182 214.909C182 215.144 182.18 215.389 182.401 215.456L197.599 220.095C197.82 220.162 198 220.027 198 219.793V215.052C198 214.818 197.82 214.573 197.599 214.505L182.401 209.867C182.18 209.799 182 209.935 182 210.169V214.909V214.909Z" fill="#FF9800"/>
<path fill-rule="evenodd" clip-rule="evenodd" d="M197.998 205.32C197.998 205.085 197.818 204.95 197.597 205.017L182.401 209.655C182.18 209.722 182 209.968 182 210.202V214.942C182 215.177 182.18 215.312 182.401 215.245L197.597 210.607C197.818 210.539 197.998 210.294 197.998 210.06V205.32V205.32Z" fill="#FF9800"/>
</g>
<g filter="url(#filter0_d_141_136)">
<mask id="path-9-outside-1_141_136" maskUnits="userSpaceOnUse" x="190" y="124" width="211" height="49" fill="black">
<rect fill="white" x="190" y="124" width="211" height="49"/>
<path d="M190 134C190 128.477 194.477 124 200 124H391C396.523 124 401 128.477 401 134V161C401 166.523 396.523 171 391 171H200C194.477 171 190 166.523 190 161V134Z"/>
</mask>
<path d="M190 134C190 128.477 194.477 124 200 124H391C396.523 124 401 128.477 401 134V161C401 166.523 396.523 171 391 171H200C194.477 171 190 166.523 190 161V134Z" fill="#2A2A2A" shape-rendering="crispEdges"/>
<path d="M223.164 155.036L219.984 151.856C221.011 150.546 221.567 148.927 221.563 147.262C221.563 145.779 221.123 144.329 220.299 143.096C219.474 141.862 218.303 140.901 216.933 140.333C215.562 139.766 214.054 139.617 212.599 139.907C211.144 140.196 209.808 140.91 208.759 141.959C207.71 143.008 206.996 144.344 206.707 145.799C206.417 147.254 206.566 148.762 207.133 150.133C207.701 151.503 208.662 152.674 209.896 153.498C211.129 154.323 212.579 154.762 214.063 154.762C215.728 154.767 217.346 154.211 218.656 153.184L221.836 156.364C222.013 156.539 222.251 156.637 222.5 156.637C222.749 156.637 222.987 156.539 223.164 156.364C223.251 156.277 223.321 156.173 223.368 156.059C223.415 155.946 223.44 155.823 223.44 155.7C223.44 155.577 223.415 155.454 223.368 155.34C223.321 155.226 223.251 155.123 223.164 155.036V155.036ZM208.438 147.262C208.438 146.15 208.767 145.062 209.385 144.137C210.004 143.212 210.882 142.491 211.91 142.066C212.938 141.64 214.069 141.528 215.16 141.746C216.251 141.963 217.253 142.498 218.04 143.285C218.827 144.072 219.362 145.074 219.579 146.165C219.796 147.256 219.685 148.387 219.259 149.415C218.834 150.443 218.113 151.321 217.188 151.939C216.263 152.558 215.175 152.887 214.063 152.887C212.571 152.885 211.142 152.292 210.087 151.238C209.033 150.183 208.44 148.754 208.438 147.262Z" fill="#D2D2D2"/>
<path d="M248.892 150.944H243.654L242.754 153.5H240.612L245.094 140.972H247.47L251.952 153.5H249.792L248.892 150.944ZM248.316 149.27L246.282 143.456L244.23 149.27H248.316ZM257.501 153.662C256.721 153.662 256.019 153.524 255.395 153.248C254.783 152.96 254.297 152.576 253.937 152.096C253.577 151.604 253.385 151.058 253.361 150.458H255.485C255.521 150.878 255.719 151.232 256.079 151.52C256.451 151.796 256.913 151.934 257.465 151.934C258.041 151.934 258.485 151.826 258.797 151.61C259.121 151.382 259.283 151.094 259.283 150.746C259.283 150.374 259.103 150.098 258.743 149.918C258.395 149.738 257.837 149.54 257.069 149.324C256.325 149.12 255.719 148.922 255.251 148.73C254.783 148.538 254.375 148.244 254.027 147.848C253.691 147.452 253.523 146.93 253.523 146.282C253.523 145.754 253.679 145.274 253.991 144.842C254.303 144.398 254.747 144.05 255.323 143.798C255.911 143.546 256.583 143.42 257.339 143.42C258.467 143.42 259.373 143.708 260.057 144.284C260.753 144.848 261.125 145.622 261.173 146.606H259.121C259.085 146.162 258.905 145.808 258.581 145.544C258.257 145.28 257.819 145.148 257.267 145.148C256.727 145.148 256.313 145.25 256.025 145.454C255.737 145.658 255.593 145.928 255.593 146.264C255.593 146.528 255.689 146.75 255.881 146.93C256.073 147.11 256.307 147.254 256.583 147.362C256.859 147.458 257.267 147.584 257.807 147.74C258.527 147.932 259.115 148.13 259.571 148.334C260.039 148.526 260.441 148.814 260.777 149.198C261.113 149.582 261.287 150.092 261.299 150.728C261.299 151.292 261.143 151.796 260.831 152.24C260.519 152.684 260.075 153.032 259.499 153.284C258.935 153.536 258.269 153.662 257.501 153.662ZM267.44 148.55L272.012 153.5H269.24L265.568 149.234V153.5H263.516V140.18H265.568V147.92L269.168 143.582H272.012L267.44 148.55ZM277.475 148.496C277.475 147.5 277.679 146.618 278.087 145.85C278.507 145.082 279.071 144.488 279.779 144.068C280.499 143.636 281.291 143.42 282.155 143.42C282.935 143.42 283.613 143.576 284.189 143.888C284.777 144.188 285.245 144.566 285.593 145.022V143.582H287.663V153.5H285.593V152.024C285.245 152.492 284.771 152.882 284.171 153.194C283.571 153.506 282.887 153.662 282.119 153.662C281.267 153.662 280.487 153.446 279.779 153.014C279.071 152.57 278.507 151.958 278.087 151.178C277.679 150.386 277.475 149.492 277.475 148.496ZM285.593 148.532C285.593 147.848 285.449 147.254 285.161 146.75C284.885 146.246 284.519 145.862 284.063 145.598C283.607 145.334 283.115 145.202 282.587 145.202C282.059 145.202 281.567 145.334 281.111 145.598C280.655 145.85 280.283 146.228 279.995 146.732C279.719 147.224 279.581 147.812 279.581 148.496C279.581 149.18 279.719 149.78 279.995 150.296C280.283 150.812 280.655 151.208 281.111 151.484C281.579 151.748 282.071 151.88 282.587 151.88C283.115 151.88 283.607 151.748 284.063 151.484C284.519 151.22 284.885 150.836 285.161 150.332C285.449 149.816 285.593 149.216 285.593 148.532ZM295.362 143.42C296.142 143.42 296.838 143.582 297.45 143.906C298.074 144.23 298.56 144.71 298.908 145.346C299.256 145.982 299.43 146.75 299.43 147.65V153.5H297.396V147.956C297.396 147.068 297.174 146.39 296.73 145.922C296.286 145.442 295.68 145.202 294.912 145.202C294.144 145.202 293.532 145.442 293.076 145.922C292.632 146.39 292.41 147.068 292.41 147.956V153.5H290.358V143.582H292.41V144.716C292.746 144.308 293.172 143.99 293.688 143.762C294.216 143.534 294.774 143.42 295.362 143.42ZM310.975 143.582L304.891 158.162H302.767L304.783 153.338L300.877 143.582H303.163L305.953 151.142L308.851 143.582H310.975ZM314.918 145.256V150.746C314.918 151.118 315.002 151.388 315.17 151.556C315.35 151.712 315.65 151.79 316.07 151.79H317.33V153.5H315.71C314.786 153.5 314.078 153.284 313.586 152.852C313.094 152.42 312.848 151.718 312.848 150.746V145.256H311.678V143.582H312.848V141.116H314.918V143.582H317.33V145.256H314.918ZM324.351 143.42C325.107 143.42 325.779 143.582 326.367 143.906C326.967 144.23 327.435 144.71 327.771 145.346C328.119 145.982 328.293 146.75 328.293 147.65V153.5H326.259V147.956C326.259 147.068 326.037 146.39 325.593 145.922C325.149 145.442 324.543 145.202 323.775 145.202C323.007 145.202 322.395 145.442 321.939 145.922C321.495 146.39 321.273 147.068 321.273 147.956V153.5H319.221V140.18H321.273V144.734C321.621 144.314 322.059 143.99 322.587 143.762C323.127 143.534 323.715 143.42 324.351 143.42ZM331.955 142.268C331.583 142.268 331.271 142.142 331.019 141.89C330.767 141.638 330.641 141.326 330.641 140.954C330.641 140.582 330.767 140.27 331.019 140.018C331.271 139.766 331.583 139.64 331.955 139.64C332.315 139.64 332.621 139.766 332.873 140.018C333.125 140.27 333.251 140.582 333.251 140.954C333.251 141.326 333.125 141.638 332.873 141.89C332.621 142.142 332.315 142.268 331.955 142.268ZM332.963 143.582V153.5H330.911V143.582H332.963ZM340.661 143.42C341.441 143.42 342.137 143.582 342.749 143.906C343.373 144.23 343.859 144.71 344.207 145.346C344.555 145.982 344.729 146.75 344.729 147.65V153.5H342.695V147.956C342.695 147.068 342.473 146.39 342.029 145.922C341.585 145.442 340.979 145.202 340.211 145.202C339.443 145.202 338.831 145.442 338.375 145.922C337.931 146.39 337.709 147.068 337.709 147.956V153.5H335.657V143.582H337.709V144.716C338.045 144.308 338.471 143.99 338.987 143.762C339.515 143.534 340.073 143.42 340.661 143.42ZM351.342 143.42C352.11 143.42 352.788 143.576 353.376 143.888C353.976 144.188 354.444 144.566 354.78 145.022V143.582H356.85V153.662C356.85 154.574 356.658 155.384 356.274 156.092C355.89 156.812 355.332 157.376 354.6 157.784C353.88 158.192 353.016 158.396 352.008 158.396C350.664 158.396 349.548 158.078 348.66 157.442C347.772 156.818 347.268 155.966 347.148 154.886H349.182C349.338 155.402 349.668 155.816 350.172 156.128C350.688 156.452 351.3 156.614 352.008 156.614C352.836 156.614 353.502 156.362 354.006 155.858C354.522 155.354 354.78 154.622 354.78 153.662V152.006C354.432 152.474 353.958 152.87 353.358 153.194C352.77 153.506 352.098 153.662 351.342 153.662C350.478 153.662 349.686 153.446 348.966 153.014C348.258 152.57 347.694 151.958 347.274 151.178C346.866 150.386 346.662 149.492 346.662 148.496C346.662 147.5 346.866 146.618 347.274 145.85C347.694 145.082 348.258 144.488 348.966 144.068C349.686 143.636 350.478 143.42 351.342 143.42ZM354.78 148.532C354.78 147.848 354.636 147.254 354.348 146.75C354.072 146.246 353.706 145.862 353.25 145.598C352.794 145.334 352.302 145.202 351.774 145.202C351.246 145.202 350.754 145.334 350.298 145.598C349.842 145.85 349.47 146.228 349.182 146.732C348.906 147.224 348.768 147.812 348.768 148.496C348.768 149.18 348.906 149.78 349.182 150.296C349.47 150.812 349.842 151.208 350.298 151.484C350.766 151.748 351.258 151.88 351.774 151.88C352.302 151.88 352.794 151.748 353.25 151.484C353.706 151.22 354.072 150.836 354.348 150.332C354.636 149.816 354.78 149.216 354.78 148.532ZM362.119 140.99L361.885 149.72H360.175L359.941 140.99H362.119ZM361.093 153.626C360.721 153.626 360.409 153.5 360.157 153.248C359.905 152.996 359.779 152.684 359.779 152.312C359.779 151.94 359.905 151.628 360.157 151.376C360.409 151.124 360.721 150.998 361.093 150.998C361.453 150.998 361.759 151.124 362.011 151.376C362.263 151.628 362.389 151.94 362.389 152.312C362.389 152.684 362.263 152.996 362.011 153.248C361.759 153.5 361.453 153.626 361.093 153.626Z" fill="#6D6D6D"/>
<path d="M190 124H401H190ZM401 161C401 167.627 395.627 173 389 173H202C195.373 173 190 167.627 190 161C190 165.418 194.477 169 200 169H391C396.523 169 401 165.418 401 161ZM190 171V124V171ZM401 124V171V124Z" fill="url(#paint4_linear_141_136)" mask="url(#path-9-outside-1_141_136)"/>
</g>
<path d="M450.5 137C450.5 144.816 446.323 152.32 438.643 159.204C430.963 166.087 419.821 172.309 406.01 177.545C378.392 188.014 340.205 194.5 298 194.5C255.795 194.5 217.608 188.014 189.99 177.545C176.179 172.309 165.037 166.087 157.357 159.204C149.677 152.32 145.5 144.816 145.5 137C145.5 129.184 149.677 121.68 157.357 114.796C165.037 107.913 176.179 101.691 189.99 96.4553C217.608 85.9859 255.795 79.5 298 79.5C340.205 79.5 378.392 85.9859 406.01 96.4553C419.821 101.691 430.963 107.913 438.643 114.796C446.323 121.68 450.5 129.184 450.5 137Z" stroke="url(#paint5_linear_141_136)"/>
<path d="M444.5 150C444.5 169.585 428.223 187.457 401.579 200.462C374.969 213.452 338.172 221.5 297.5 221.5C256.828 221.5 220.031 213.452 193.421 200.462C166.777 187.457 150.5 169.585 150.5 150C150.5 130.415 166.777 112.543 193.421 99.5376C220.031 86.5482 256.828 78.5 297.5 78.5C338.172 78.5 374.969 86.5482 401.579 99.5376C428.223 112.543 444.5 130.415 444.5 150Z" stroke="url(#paint6_linear_141_136)"/>
<path d="M510.5 162C510.5 173.272 504.598 184.065 493.806 193.938C483.013 203.812 467.369 212.727 447.994 220.224C409.248 235.216 355.687 244.5 296.5 244.5C237.313 244.5 183.752 235.216 145.006 220.224C125.631 212.727 109.987 203.812 99.194 193.938C88.4017 184.065 82.5 173.272 82.5 162C82.5 139.405 102.863 118.651 138.272 103.52C173.635 88.4087 223.813 79 283 79C342.186 79 399.127 88.4086 441.255 103.531C462.322 111.093 479.657 120.074 491.716 130.001C503.781 139.932 510.5 150.753 510.5 162Z" stroke="url(#paint7_linear_141_136)"/>
<g opacity="0.3" clip-path="url(#clip0_141_136)">
<path d="M127.324 98.9486L139.497 98.0495C140.992 97.9212 141.376 98.0077 142.317 98.6912L146.202 101.429C146.843 101.899 147.057 102.028 147.057 102.54L147.057 117.554C147.057 118.495 146.715 119.051 145.519 119.136L131.383 119.993C130.485 120.035 130.058 119.907 129.587 119.308L126.726 115.587C126.213 114.902 126 114.389 126 113.79L126 100.445C126 99.6753 126.342 99.0338 127.324 98.9486Z" fill="white"/>
<path fill-rule="evenodd" clip-rule="evenodd" d="M139.497 98.0497L127.324 98.9489C126.342 99.0338 126 99.6755 126 100.445L126 113.79C126 114.389 126.213 114.901 126.726 115.587L129.587 119.307C130.058 119.906 130.485 120.035 131.383 119.992L145.519 119.136C146.714 119.051 147.057 118.495 147.057 117.554L147.057 102.541C147.057 102.054 146.865 101.914 146.299 101.499L142.317 98.6912C141.377 98.0077 140.992 97.9212 139.497 98.0495L139.497 98.0497ZM131.702 102.295C130.548 102.372 130.286 102.39 129.631 101.857L127.964 100.531C127.794 100.36 127.88 100.146 128.306 100.103L140.009 99.2478C140.992 99.162 141.503 99.5046 141.888 99.8038L143.895 101.258C143.98 101.301 144.194 101.557 143.937 101.557L131.852 102.285L131.702 102.295L131.702 102.295ZM130.357 117.426L130.357 104.681C130.357 104.124 130.527 103.867 131.039 103.824L144.92 103.011C145.391 102.969 145.603 103.268 145.603 103.824L145.603 116.484C145.603 117.041 145.518 117.512 144.749 117.554L131.466 118.324C130.698 118.366 130.357 118.111 130.357 117.426L130.357 117.426ZM143.469 105.364C143.554 105.749 143.469 106.134 143.084 106.178L142.443 106.305L142.443 115.715C141.887 116.014 141.376 116.185 140.948 116.185C140.264 116.185 140.094 115.971 139.582 115.33L135.395 108.743L135.395 115.116L136.72 115.416C136.72 115.416 136.72 116.186 135.651 116.186L132.705 116.357C132.619 116.185 132.705 115.758 133.004 115.672L133.773 115.459L133.773 107.033L132.705 106.947C132.62 106.562 132.833 106.006 133.431 105.962L136.592 105.75L140.948 112.422L140.948 106.519L139.838 106.391C139.752 105.92 140.094 105.577 140.521 105.536L143.469 105.364L143.469 105.364Z" fill="black"/>
</g>
<path d="M477.532 197.885C478.291 196.847 479.046 195.804 479.812 194.772C480.538 193.792 481.875 193.965 482.54 195.116C482.924 195.782 482.932 196.649 482.517 197.224C481.158 199.109 479.795 200.989 478.415 202.854C477.989 203.431 477.384 203.573 476.705 203.304C476.016 203.03 475.619 202.45 475.471 201.662C475.404 201.045 475.585 200.55 475.917 200.108C476.466 199.378 476.995 198.627 477.532 197.885Z" fill="url(#paint8_linear_141_136)"/>
<path d="M478.091 197.128C476.843 196.815 475.594 196.508 474.347 196.187C473.163 195.881 472.513 194.501 473.014 193.374C473.304 192.722 473.971 192.356 474.659 192.523C476.914 193.073 479.168 193.629 481.419 194.206C482.116 194.385 482.58 194.918 482.769 195.694C482.961 196.482 482.745 197.11 482.222 197.582C481.783 197.903 481.294 197.93 480.758 197.788C479.871 197.553 478.98 197.347 478.091 197.128" fill="url(#paint9_linear_141_136)"/>
<path d="M468.787 199.972C468.299 200.631 467.811 201.291 467.324 201.952C467.04 202.338 466.762 202.732 466.474 203.115C465.894 203.887 464.884 203.926 464.135 203.21C463.421 202.528 463.265 201.363 463.816 200.598C465.163 198.726 466.519 196.862 467.885 195.009C468.305 194.441 468.895 194.279 469.566 194.531C470.274 194.798 470.688 195.386 470.845 196.194C470.837 196.406 470.871 196.639 470.811 196.826C470.714 197.129 470.589 197.432 470.418 197.683C469.889 198.459 469.333 199.211 468.787 199.972" fill="url(#paint10_linear_141_136)"/>
<path d="M468.224 200.717C469.02 200.921 469.817 201.126 470.613 201.329C471.079 201.447 471.546 201.556 472.011 201.679C472.949 201.928 473.571 202.899 473.456 203.928C473.346 204.91 472.536 205.546 471.621 205.323C469.383 204.779 467.147 204.225 464.912 203.654C464.227 203.479 463.755 202.969 463.557 202.208C463.349 201.404 463.561 200.756 464.095 200.268C464.263 200.188 464.424 200.058 464.603 200.039C464.895 200.008 465.203 200.005 465.497 200.069C466.407 200.265 467.315 200.498 468.224 200.717" fill="url(#paint11_linear_141_136)"/>
<path d="M261 223.903C261 223.404 261.404 223 261.903 223H273.097C273.596 223 274 223.404 274 223.903V230.5C274 234.09 271.09 237 267.5 237V237C263.91 237 261 234.09 261 230.5V223.903Z" fill="url(#paint12_linear_141_136)"/>
<path d="M251 222.226C251 221.549 251.549 221 252.226 221H265.774C266.451 221 267 221.549 267 222.226V232C267 236.418 263.418 240 259 240V240C254.582 240 251 236.418 251 232V222.226Z" fill="url(#paint13_linear_141_136)"/>
<circle cx="269" cy="218" r="3" fill="#34439E"/>
<circle cx="269" cy="218" r="3" fill="url(#paint14_linear_141_136)"/>
<circle cx="260" cy="216" r="4" fill="url(#paint15_linear_141_136)"/>
<mask id="mask0_141_136" style="mask-type:alpha" maskUnits="userSpaceOnUse" x="251" y="210" width="16" height="30">
<path d="M259 220C261.761 220 264 217.761 264 215C264 212.239 261.761 210 259 210C256.239 210 254 212.239 254 215C254 217.761 256.239 220 259 220Z" fill="url(#paint16_linear_141_136)"/>
<path d="M252.226 221C251.549 221 251 221.549 251 222.226V232C251 236.418 254.582 240 259 240C263.418 240 267 236.418 267 232V222.226C267 221.549 266.451 221 265.774 221H252.226Z" fill="url(#paint17_linear_141_136)"/>
</mask>
<g mask="url(#mask0_141_136)">
<path d="M249 222C249 220.343 250.343 219 252 219H259C260.657 219 262 220.343 262 222V234C262 235.657 260.657 237 259 237H249V222Z" fill="black" fill-opacity="0.3"/>
</g>
<rect x="242" y="217" width="18" height="18" rx="2" fill="url(#paint18_linear_141_136)"/>
<path d="M255 221H247V222.835H249.995V231H252.005V222.835H255V221Z" fill="white"/>
<g opacity="0.6">
<path d="M499.393 155.328H502.644V147.434L498 143.951V153.935C498 154.706 498.625 155.328 499.393 155.328Z" fill="#4285F4"/>
<path d="M513.788 155.328H517.039C517.81 155.328 518.432 154.703 518.432 153.935V143.951L513.788 147.434" fill="#34A853"/>
<path d="M513.788 141.397V147.434L518.432 143.951V142.094C518.432 140.371 516.465 139.389 515.089 140.422" fill="#FBBC04"/>
<path d="M502.644 147.434V141.397L508.216 145.576L513.788 141.397V147.434L508.216 151.613" fill="#EA4335"/>
<path d="M498 142.094V143.951L502.644 147.434V141.397L501.343 140.422C499.964 139.389 498 140.371 498 142.094" fill="#C5221F"/>
</g>
<g opacity="0.8">
<path d="M351.002 206.117C351.002 205.238 350.018 205.238 349.58 205.348C350.193 204.864 350.911 204.981 351.166 205.128L357.079 208.027C357.643 208.304 358 208.879 358 209.509V228.583C358 229.222 357.633 229.802 357.058 230.074L351.494 232.705C351.111 232.87 350.28 233.277 349.58 232.705C350.455 232.87 350.929 232.248 351.002 231.826V206.117Z" fill="url(#paint19_linear_141_136)"/>
<path d="M349.651 205.332C350.115 205.24 351.002 205.283 351.002 206.117V212.682L333.074 226.245C332.76 226.482 332.319 226.443 332.052 226.154L330.205 224.155C329.915 223.841 329.935 223.351 330.25 223.063L349.58 205.348L349.651 205.332Z" fill="url(#paint20_linear_141_136)"/>
<path d="M351.002 225.371L333.074 211.808C332.76 211.571 332.319 211.61 332.052 211.899L330.205 213.898C329.915 214.211 329.935 214.702 330.25 214.99L349.58 232.705V232.705C350.455 232.87 350.929 232.248 351.002 231.826V225.371Z" fill="url(#paint21_linear_141_136)"/>
</g>
<path opacity="0.065" d="M413.418 103.009C412.861 102.452 412.861 101.548 413.418 100.991L421.991 92.4181C422.548 91.8606 423.452 91.8606 424.009 92.4181L432.582 100.991C433.139 101.548 433.139 102.452 432.582 103.009L424.009 111.582C423.452 112.139 422.548 112.139 421.991 111.582L413.418 103.009Z" fill="#EE513B"/>
<path opacity="0.03" d="M419.928 94L419 94.894L421.397 97.203C421.3 97.4034 421.246 97.6269 421.246 97.8625C421.246 98.5316 421.682 99.1025 422.295 99.3255V104.974C421.682 105.197 421.246 105.768 421.246 106.437C421.246 107.3 421.972 108 422.868 108C423.764 108 424.49 107.3 424.49 106.437C424.49 105.83 424.132 105.304 423.608 105.045V99.3332L425.899 101.54C425.806 101.737 425.755 101.955 425.755 102.184C425.755 103.047 426.481 103.747 427.378 103.747C428.274 103.747 429 103.047 429 102.184C429 101.321 428.274 100.621 427.378 100.621C427.203 100.621 427.036 100.647 426.878 100.696L424.418 98.3259C424.465 98.1795 424.49 98.0239 424.49 97.8625C424.49 96.9992 423.764 96.2994 422.868 96.2994C422.701 96.2994 422.539 96.3238 422.387 96.3692L419.928 94Z" fill="white"/>
<path d="M464.177 103.941C465.426 103.634 466.675 103.321 467.925 103.022C469.111 102.738 470.024 103.73 469.793 105.039C469.66 105.796 469.108 106.466 468.421 106.639C466.169 107.209 463.915 107.773 461.66 108.316C460.962 108.483 460.408 108.204 460.061 107.561C459.709 106.908 459.778 106.209 460.171 105.509C460.516 104.994 460.973 104.731 461.511 104.606C462.401 104.4 463.289 104.165 464.177 103.941" fill="url(#paint22_linear_141_136)" fill-opacity="0.03"/>
<path d="M465.092 103.721C464.337 102.679 463.578 101.641 462.829 100.593C462.118 99.5979 462.508 98.1228 463.616 97.5817C464.257 97.2688 465.004 97.4168 465.423 97.9873C466.797 99.8577 468.166 101.732 469.52 103.622C469.938 104.207 469.952 104.913 469.598 105.629C469.238 106.356 468.669 106.698 467.965 106.724C467.423 106.688 467.03 106.394 466.711 105.941C466.182 105.191 465.633 104.46 465.092 103.721" fill="url(#paint23_linear_141_136)" fill-opacity="0.03"/>
<path d="M456.137 99.9188C455.339 100.111 454.542 100.302 453.744 100.495C453.277 100.608 452.812 100.732 452.345 100.84C451.404 101.058 450.606 100.439 450.492 99.4098C450.383 98.4277 451.013 97.4348 451.927 97.2027C454.162 96.6354 456.398 96.0786 458.636 95.5377C459.322 95.3719 459.879 95.6268 460.231 96.2517C460.602 96.9112 460.541 97.6273 460.142 98.3472C459.999 98.5048 459.875 98.7052 459.71 98.8098C459.441 98.9802 459.15 99.1313 458.858 99.2136C457.954 99.4681 457.044 99.6864 456.137 99.9188" fill="url(#paint24_linear_141_136)" fill-opacity="0.03"/>
<path d="M455.227 100.128C455.706 100.796 456.184 101.465 456.664 102.132C456.944 102.522 457.233 102.906 457.51 103.299C458.068 104.092 457.92 105.236 457.17 105.951C456.455 106.632 455.426 106.598 454.868 105.84C453.504 103.985 452.147 102.122 450.801 100.249C450.389 99.6744 450.356 98.9802 450.694 98.2701C451.05 97.5206 451.63 97.1604 452.352 97.1292C452.533 97.1764 452.739 97.1801 452.889 97.2808C453.132 97.4446 453.37 97.6404 453.554 97.8781C454.126 98.6139 454.671 99.3758 455.227 100.128" fill="url(#paint25_linear_141_136)" fill-opacity="0.03"/>
<path opacity="0.3" d="M455.079 145.426C449.301 145.054 444.313 149.438 443.941 155.217C443.644 159.84 446.389 163.956 450.459 165.607C450.975 165.738 451.165 165.424 451.183 165.149L451.308 163.201C448.357 163.646 447.871 161.739 447.871 161.739C447.472 160.499 446.807 160.133 446.807 160.133C445.899 159.422 446.92 159.502 446.92 159.502C447.966 159.643 448.454 160.684 448.454 160.684C449.285 162.343 450.829 161.979 451.444 161.749C451.58 161.08 451.881 160.635 452.198 160.394C449.891 159.978 447.506 158.923 447.764 154.915C447.837 153.771 448.306 152.865 449.022 152.175C448.931 151.904 448.641 150.816 449.303 149.412C449.303 149.412 450.2 149.188 452.112 150.67C452.962 150.492 453.864 150.433 454.754 150.486C455.643 150.548 456.531 150.721 457.352 151.007C459.437 149.782 460.297 150.12 460.297 150.12C460.773 151.598 460.346 152.64 460.221 152.896C460.845 153.672 461.191 154.632 461.117 155.774C460.859 159.793 458.354 160.521 456.007 160.63C456.361 160.978 456.663 161.637 456.6 162.614L456.415 165.485C456.397 165.764 456.544 166.101 457.081 166.033C461.326 164.915 464.573 161.186 464.87 156.564C465.242 150.785 460.858 145.798 455.079 145.426Z" fill="white"/>
<defs>
<filter id="filter0_d_141_136" x="186" y="124" width="219" height="57" filterUnits="userSpaceOnUse" color-interpolation-filters="sRGB">
<feFlood flood-opacity="0" result="BackgroundImageFix"/>
<feColorMatrix in="SourceAlpha" type="matrix" values="0 0 0 0 0 0 0 0 0 0 0 0 0 0 0 0 0 0 127 0" result="hardAlpha"/>
<feOffset dy="4"/>
<feGaussianBlur stdDeviation="2"/>
<feComposite in2="hardAlpha" operator="out"/>
<feColorMatrix type="matrix" values="0 0 0 0 0 0 0 0 0 0 0 0 0 0 0 0 0 0 0.25 0"/>
<feBlend mode="normal" in2="BackgroundImageFix" result="effect1_dropShadow_141_136"/>
<feBlend mode="normal" in="SourceGraphic" in2="effect1_dropShadow_141_136" result="shape"/>
</filter>
<linearGradient id="paint0_linear_141_136" x1="434.858" y1="214.55" x2="429.433" y2="202.237" gradientUnits="userSpaceOnUse">
<stop offset="0.18" stop-color="#0052CC"/>
<stop offset="1" stop-color="#2684FF"/>
</linearGradient>
<linearGradient id="paint1_linear_141_136" x1="414.142" y1="189.385" x2="419.576" y2="201.703" gradientUnits="userSpaceOnUse">
<stop offset="0.18" stop-color="#0052CC"/>
<stop offset="1" stop-color="#2684FF"/>
</linearGradient>
<radialGradient id="paint2_radial_141_136" cx="0" cy="0" r="1" gradientUnits="userSpaceOnUse" gradientTransform="translate(304.5 162.5) rotate(90) scale(99.5 304.5)">
<stop stop-color="#EDBB46"/>
<stop offset="1" stop-color="#313131" stop-opacity="0"/>
</radialGradient>
<linearGradient id="paint3_linear_141_136" x1="190.818" y1="221.874" x2="192.503" y2="217.59" gradientUnits="userSpaceOnUse">
<stop stop-color="#FF9700"/>
<stop offset="0.53" stop-color="#F48E00"/>
<stop offset="1" stop-color="#D06F00"/>
</linearGradient>
<linearGradient id="paint4_linear_141_136" x1="190" y1="171" x2="401" y2="171" gradientUnits="userSpaceOnUse">
<stop stop-color="#C99700"/>
<stop offset="0.489583" stop-color="#FFF38A"/>
<stop offset="1" stop-color="#EDB201"/>
</linearGradient>
<linearGradient id="paint5_linear_141_136" x1="298" y1="79" x2="298" y2="195" gradientUnits="userSpaceOnUse">
<stop offset="0.197917" stop-opacity="0"/>
<stop offset="1" stop-color="#856400"/>
</linearGradient>
<linearGradient id="paint6_linear_141_136" x1="297.5" y1="78" x2="297.5" y2="222" gradientUnits="userSpaceOnUse">
<stop offset="0.197917" stop-opacity="0"/>
<stop offset="1" stop-color="#CE9C02" stop-opacity="0.89"/>
</linearGradient>
<linearGradient id="paint7_linear_141_136" x1="296.5" y1="79" x2="296.5" y2="245" gradientUnits="userSpaceOnUse">
<stop stop-opacity="0"/>
<stop offset="0.246527" stop-color="#09050E" stop-opacity="0.0797093"/>
<stop offset="0.479167" stop-color="#FBBC04"/>
</linearGradient>
<linearGradient id="paint8_linear_141_136" x1="473.911" y1="197.497" x2="482.562" y2="202.39" gradientUnits="userSpaceOnUse">
<stop stop-color="#C99700"/>
<stop offset="0.445833" stop-color="#FDD984"/>
<stop offset="0.654167" stop-color="#FFE9A7"/>
<stop offset="0.992708" stop-color="#FBBC04"/>
</linearGradient>
<linearGradient id="paint9_linear_141_136" x1="472.603" y1="193.89" x2="481.242" y2="198.785" gradientUnits="userSpaceOnUse">
<stop stop-color="#C99700"/>
<stop offset="0.445833" stop-color="#FDD984"/>
<stop offset="0.654167" stop-color="#FFE9A7"/>
<stop offset="0.992708" stop-color="#FBBC04"/>
</linearGradient>
<linearGradient id="paint10_linear_141_136" x1="461.927" y1="197.769" x2="470.583" y2="202.663" gradientUnits="userSpaceOnUse">
<stop stop-color="#C99700"/>
<stop offset="0.445833" stop-color="#FDD984"/>
<stop offset="0.654167" stop-color="#FFE9A7"/>
<stop offset="0.992708" stop-color="#FBBC04"/>
</linearGradient>
<linearGradient id="paint11_linear_141_136" x1="463.245" y1="201.385" x2="471.881" y2="206.281" gradientUnits="userSpaceOnUse">
<stop stop-color="#C99700"/>
<stop offset="0.445833" stop-color="#FDD984"/>
<stop offset="0.654167" stop-color="#FFE9A7"/>
<stop offset="0.992708" stop-color="#FBBC04"/>
</linearGradient>
<linearGradient id="paint12_linear_141_136" x1="261" y1="223.737" x2="274.159" y2="232.335" gradientUnits="userSpaceOnUse">
<stop stop-color="#364088"/>
<stop offset="1" stop-color="#6E7EE1"/>
</linearGradient>
<linearGradient id="paint13_linear_141_136" x1="251" y1="229.404" x2="267" y2="229.404" gradientUnits="userSpaceOnUse">
<stop stop-color="#515FC4"/>
<stop offset="1" stop-color="#7084EA"/>
</linearGradient>
<linearGradient id="paint14_linear_141_136" x1="266" y1="215.316" x2="271.796" y2="219.395" gradientUnits="userSpaceOnUse">
<stop stop-color="#364088"/>
<stop offset="1" stop-color="#6E7EE1"/>
</linearGradient>
<linearGradient id="paint15_linear_141_136" x1="257.143" y1="213.143" x2="262.286" y2="219.143" gradientUnits="userSpaceOnUse">
<stop stop-color="#4858AE"/>
<stop offset="1" stop-color="#4E60CE"/>
</linearGradient>
<linearGradient id="paint16_linear_141_136" x1="255.429" y1="211.429" x2="261.857" y2="218.929" gradientUnits="userSpaceOnUse">
<stop stop-color="#4858AE"/>
<stop offset="1" stop-color="#4E60CE"/>
</linearGradient>
<linearGradient id="paint17_linear_141_136" x1="255.429" y1="211.429" x2="261.857" y2="218.929" gradientUnits="userSpaceOnUse">
<stop stop-color="#4858AE"/>
<stop offset="1" stop-color="#4E60CE"/>
</linearGradient>
<linearGradient id="paint18_linear_141_136" x1="242" y1="226" x2="260" y2="226" gradientUnits="userSpaceOnUse">
<stop stop-color="#2A3887"/>
<stop offset="1" stop-color="#4C56B9"/>
</linearGradient>
<linearGradient id="paint19_linear_141_136" x1="353.79" y1="205" x2="353.79" y2="233" gradientUnits="userSpaceOnUse">
<stop stop-color="#32B5F1"/>
<stop offset="1" stop-color="#2B9FED"/>
</linearGradient>
<linearGradient id="paint20_linear_141_136" x1="351.002" y1="208.534" x2="331.022" y2="225.305" gradientUnits="userSpaceOnUse">
<stop stop-color="#0F6FB3"/>
<stop offset="0.270551" stop-color="#1279B7"/>
<stop offset="0.421376" stop-color="#1176B5"/>
<stop offset="0.618197" stop-color="#0E69AC"/>
<stop offset="0.855344" stop-color="#0F70AF"/>
<stop offset="1" stop-color="#0F6DAD"/>
</linearGradient>
<linearGradient id="paint21_linear_141_136" x1="331.155" y1="212.984" x2="351.079" y2="229.481" gradientUnits="userSpaceOnUse">
<stop stop-color="#1791D2"/>
<stop offset="1" stop-color="#1173C5"/>
</linearGradient>
<linearGradient id="paint22_linear_141_136" x1="461.653" y1="101.317" x2="465.134" y2="110.626" gradientUnits="userSpaceOnUse">
<stop stop-color="#C99700"/>
<stop offset="0.445833" stop-color="#FDD984"/>
<stop offset="0.654167" stop-color="#FFE9A7"/>
<stop offset="0.992708" stop-color="#FBBC04"/>
</linearGradient>
<linearGradient id="paint23_linear_141_136" x1="462.969" y1="97.7127" x2="466.441" y2="107.016" gradientUnits="userSpaceOnUse">
<stop stop-color="#C99700"/>
<stop offset="0.445833" stop-color="#FDD984"/>
<stop offset="0.654167" stop-color="#FFE9A7"/>
<stop offset="0.992708" stop-color="#FBBC04"/>
</linearGradient>
<linearGradient id="paint24_linear_141_136" x1="452.298" y1="93.8216" x2="455.783" y2="103.135" gradientUnits="userSpaceOnUse">
<stop stop-color="#C99700"/>
<stop offset="0.445833" stop-color="#FDD984"/>
<stop offset="0.654167" stop-color="#FFE9A7"/>
<stop offset="0.992708" stop-color="#FBBC04"/>
</linearGradient>
<linearGradient id="paint25_linear_141_136" x1="450.983" y1="97.4392" x2="454.452" y2="106.741" gradientUnits="userSpaceOnUse">
<stop stop-color="#C99700"/>
<stop offset="0.445833" stop-color="#FDD984"/>
<stop offset="0.654167" stop-color="#FFE9A7"/>
<stop offset="0.992708" stop-color="#FBBC04"/>
</linearGradient>
<clipPath id="clip0_141_136">
<rect width="22" height="22" fill="white" transform="translate(126 98)"/>
</clipPath>
</defs>
</svg>
